<svg version="1.1" id="Menu_1_" xmlns="http://www.w3.org/2000/svg"
     x="17px" y="17px"
     viewBox="0 0 62.449543 37.8807335"
     style="width: 17px; height: 17px; enable-background:new 0 0 62.449543 37.8807335;" xml:space="preserve">
                                <g id="Menu">
                                    <g>
                                        <path style="fill-rule:evenodd;clip-rule:evenodd;fill:#001634;" d="M7.2248278,9.9403486h21.999939
                                            c1.6568604,0,3.000061-1.3430176,3.000061-2.9999995c0-1.6567383-1.3432007-3-3.000061-3H7.2248278
                                            c-1.6568604,0-3.000061,1.3432617-3.000061,3C4.2247667,8.597331,5.5679674,9.9403486,7.2248278,9.9403486z
                                             M55.2247658,27.9403496h-21.999939c-1.6568604,0-3.000061,1.3431396-3.000061,3c0,1.6569824,1.3432007,3,3.000061,3h21.999939
                                            c1.6568604,0,3.000061-1.3430176,3.000061-3C58.2248268,29.2834892,56.8816261,27.9403496,55.2247658,27.9403496z
                                             M58.2248268,18.9403496c0-1.6567383-1.3432007-3.000001-3.000061-3.000001H7.2248278
                                            c-1.6568604,0-3.000061,1.3432627-3.000061,3.000001c0,1.6568604,1.3432007,3,3.000061,3h47.999939
                                            C56.8816261,21.9403496,58.2248268,20.5972099,58.2248268,18.9403496z"/>
                                    </g>
                                </g>
                            </svg>
